<svg width="31" height="42" viewBox="0 0 31 42" fill="none" xmlns="http://www.w3.org/2000/svg">
<path d="M14.455 25.3V23.375C14.455 20.9717 14.42 19.07 14.35 17.67H11.69L11.62 17.6C11.62 17.2967 11.655 17.075 11.725 16.935C13.545 16.515 15.1083 15.6517 16.415 14.345C16.695 14.275 17.0217 14.24 17.395 14.24L17.535 14.31C17.2083 16.2233 17.045 19.245 17.045 23.375V25.3C17.045 28.4267 17.1267 30.6083 17.29 31.845C17.9667 32.0083 18.655 32.2417 19.355 32.545L19.25 33.21C18.06 33.07 16.8817 33 15.715 33C14.5483 33 13.3117 33.0933 12.005 33.28L11.935 32.615C12.7517 32.3117 13.4867 32.09 14.14 31.95C14.35 30.2233 14.455 28.0067 14.455 25.3Z" fill="black"/>
<circle cx="15.5" cy="24.5" r="14.5" stroke="black" stroke-width="2"/>
</svg>
