<svg width="31" height="42" viewBox="0 0 31 42" fill="none" xmlns="http://www.w3.org/2000/svg">
<path d="M12.6 29.955C12.95 29.955 13.685 29.955 14.805 29.955C15.925 29.955 17.6517 30.1067 19.985 30.41C20.2183 29.8967 20.4867 29.22 20.79 28.38L21.525 28.625C21.2683 29.535 21.14 30.3633 21.14 31.11C21.14 31.8567 21.2217 32.5683 21.385 33.245L20.965 33.525C16.9517 32.755 13.3467 32.37 10.15 32.37C10.0567 32.37 9.96333 32.37 9.87 32.37C9.49667 32.8133 9.19333 33.21 8.96 33.56L8.26 33.245C8.70333 32.1483 9.45 30.9467 10.5 29.64C11.5733 28.31 12.5883 27.155 13.545 26.175C14.525 25.195 15.4 24.0867 16.17 22.85C16.94 21.59 17.325 20.4233 17.325 19.35C17.325 17.39 16.2283 16.41 14.035 16.41C13.2183 16.41 12.4483 16.5733 11.725 16.9C11.5617 17.18 11.48 17.5533 11.48 18.02C11.48 18.4867 11.5967 18.825 11.83 19.035L11.795 19.28C11.1883 19.6533 10.6283 20.12 10.115 20.68C9.835 20.6567 9.61333 20.5517 9.45 20.365C9.28667 20.155 9.205 19.9217 9.205 19.665C9.205 18.5917 9.84667 17.5183 11.13 16.445C12.4367 15.3483 13.7433 14.6133 15.05 14.24C17.15 14.24 18.6317 14.73 19.495 15.71C20.3583 16.69 20.79 18.2883 20.79 20.505C18.9 23.445 15.8433 26.6417 11.62 30.095L11.69 30.34C12.04 30.1533 12.3433 30.025 12.6 29.955Z" fill="black"/>
<circle cx="15.5" cy="24.5" r="14.5" stroke="black" stroke-width="2"/>
</svg>
