<svg width="31" height="42" viewBox="0 0 31 42" fill="none" xmlns="http://www.w3.org/2000/svg">
<path d="M10.64 27.785C10.64 28.695 10.6633 29.4067 10.71 29.92C11.27 30.3167 12.005 30.655 12.915 30.935C13.8483 31.215 14.735 31.355 15.575 31.355C16.415 31.355 17.0683 31.075 17.535 30.515C17.8383 29.815 17.99 28.94 17.99 27.89C17.99 26.35 17.5467 25.1717 16.66 24.355C15.7967 23.515 14.5833 23.095 13.02 23.095L12.88 22.885L17.605 17.32L17.535 17.18C17.185 17.3433 16.87 17.46 16.59 17.53C15.2367 17.53 13.5217 17.4483 11.445 17.285C11.235 17.7983 11.0017 18.51 10.745 19.42L10.01 19.175C10.1733 18.2417 10.255 17.4367 10.255 16.76C10.255 16.06 10.1383 15.325 9.905 14.555L10.29 14.24C13.09 14.87 16.3567 15.185 20.09 15.185C20.6733 14.8117 21.0933 14.4967 21.35 14.24L21.945 14.765C21.035 15.605 18.97 17.6933 15.75 21.03C19.2967 21.6133 21.07 23.7833 21.07 27.54C20.58 28.7533 19.705 29.9433 18.445 31.11C17.2083 32.2767 15.96 33.0817 14.7 33.525C13.7433 33.525 12.6583 33.3967 11.445 33.14C10.2317 32.8833 9.205 32.5567 8.365 32.16V31.705C9.25167 30.7017 9.75333 29.395 9.87 27.785H10.64Z" fill="black"/>
<circle cx="15.5" cy="24.5" r="14.5" stroke="black" stroke-width="2"/>
</svg>
