<svg width="39" height="42" viewBox="0 0 39 42" fill="none" xmlns="http://www.w3.org/2000/svg">
<path d="M20.59 14.38C20.2866 16.1767 20.135 18.4283 20.135 21.135C20.135 23.8183 20.1466 25.5683 20.17 26.385C21.0566 26.385 21.675 26.3033 22.025 26.14C22.3983 25.9533 22.725 25.5217 23.005 24.845L23.565 24.95C23.355 26 23.25 27.0733 23.25 28.17L23.11 28.24C22.2933 28.17 21.325 28.135 20.205 28.135C20.205 29.2317 20.2983 30.4683 20.485 31.845C20.975 32.1017 21.57 32.3117 22.27 32.475L22.13 33.175C20.8 33.0583 19.5866 33 18.49 33C17.4166 33 16.1566 33.14 14.71 33.42L14.605 32.72C15.3983 32.37 16.32 32.0667 17.37 31.81C17.5333 30.48 17.615 29.255 17.615 28.135H9.17996L9.03996 27.645C11.0466 25.3583 12.7033 23.2933 14.01 21.45C15.3166 19.6067 16.565 17.495 17.755 15.115C18.735 14.8817 19.5866 14.59 20.31 14.24L20.59 14.38ZM17.475 17.95C16.285 20.5633 14.6983 23.2467 12.715 26C14.2083 26.1633 15.8416 26.2567 17.615 26.28L17.72 17.95H17.475Z" fill="black"/>
<path d="M37.0189 24.5C37.0189 32.327 29.1562 39 19.0094 39C8.86265 39 1 32.327 1 24.5C1 16.673 8.86265 10 19.0094 10C29.1562 10 37.0189 16.673 37.0189 24.5Z" stroke="black" stroke-width="2"/>
</svg>
