<svg aria-hidden="true" style="position: absolute; width: 0; height: 0; overflow: hidden;" version="1.1" xmlns="http://www.w3.org/2000/svg" xmlns:xlink="http://www.w3.org/1999/xlink">
<defs>
<symbol id="icon-instagram_svg" viewBox="0 0 32 32">
<path d="M16.002 11.2c-2.651 0-4.8 2.149-4.8 4.8s2.149 4.8 4.8 4.8v0c2.651 0 4.8-2.149 4.8-4.8s-2.149-4.8-4.8-4.8v0zM16.002 8c4.418 0 8 3.582 8 8s-3.582 8-8 8v0c-4.418 0-8-3.582-8-8s3.582-8 8-8v0zM26.402 7.6c0 1.105-0.895 2-2 2s-2-0.895-2-2v0c0-1.105 0.895-2 2-2s2 0.895 2 2v0zM16.002 3.2c-3.959 0-4.606 0.011-6.447 0.093-1.254 0.059-2.096 0.227-2.877 0.531-0.678 0.253-1.255 0.636-1.727 1.123l-0.001 0.001c-0.489 0.472-0.872 1.050-1.116 1.696l-0.011 0.032c-0.304 0.785-0.471 1.625-0.53 2.877-0.083 1.769-0.094 2.386-0.094 6.447 0 3.959 0.011 4.605 0.093 6.447 0.059 1.252 0.227 2.096 0.529 2.875 0.254 0.677 0.637 1.255 1.122 1.727l0.001 0.001c0.54 0.538 1.041 0.859 1.728 1.124 0.79 0.306 1.632 0.476 2.88 0.533 1.767 0.083 2.385 0.093 6.447 0.093 3.959 0 4.605-0.011 6.447-0.093 1.25-0.059 2.093-0.227 2.875-0.53 0.678-0.254 1.255-0.637 1.727-1.123l0.001-0.001c0.489-0.472 0.873-1.050 1.116-1.696l0.010-0.032c0.304-0.787 0.474-1.629 0.531-2.88 0.083-1.765 0.093-2.384 0.093-6.445 0-3.958-0.011-4.605-0.093-6.446-0.059-1.252-0.229-2.097-0.531-2.878-0.255-0.678-0.638-1.255-1.124-1.727l-0.001-0.001c-0.472-0.489-1.050-0.873-1.696-1.116l-0.032-0.010c-0.783-0.303-1.625-0.471-2.876-0.529-1.765-0.083-2.383-0.093-6.447-0.093zM16 0c4.348 0 4.89 0.016 6.596 0.096 1.702 0.080 2.864 0.347 3.884 0.745 1.056 0.405 1.946 0.957 2.835 1.844 0.793 0.78 1.421 1.726 1.827 2.781l0.018 0.054c0.395 1.019 0.663 2.181 0.743 3.885 0.075 1.706 0.096 2.247 0.096 6.595s-0.016 4.89-0.096 6.595c-0.080 1.705-0.349 2.864-0.745 3.885-0.423 1.11-1.050 2.056-1.843 2.834l-0.001 0.001c-0.78 0.793-1.726 1.421-2.781 1.827l-0.054 0.018c-1.020 0.395-2.18 0.663-3.883 0.743-1.708 0.075-2.251 0.096-6.597 0.096s-4.89-0.016-6.596-0.096c-1.703-0.080-2.863-0.349-3.884-0.745-1.11-0.423-2.056-1.051-2.834-1.843l-0.001-0.001c-0.793-0.78-1.421-1.726-1.827-2.782l-0.018-0.054c-0.397-1.020-0.663-2.18-0.743-3.885-0.077-1.706-0.096-2.247-0.096-6.595 0-4.347 0.016-4.89 0.096-6.595 0.080-1.705 0.347-2.864 0.745-3.885 0.423-1.11 1.050-2.056 1.843-2.834l0.001-0.001c0.78-0.794 1.726-1.422 2.782-1.827l0.054-0.018c1.019-0.396 2.179-0.662 3.883-0.743 1.71-0.075 2.253-0.096 6.601-0.096z"></path>
</symbol>
<symbol id="icon-twitter_svg" viewBox="0 0 40 32">
<path d="M39.619 3.764c-1.458 0.66-3.029 1.093-4.658 1.3 1.675-1.013 2.934-2.57 3.543-4.423l0.016-0.057c-1.482 0.894-3.207 1.579-5.043 1.958l-0.106 0.018c-1.498-1.618-3.601-2.56-5.989-2.56-4.45 0-8.087 3.614-8.087 8.076 0 0.64 0.076 1.26 0.209 1.844-6.755-0.346-12.702-3.539-16.707-8.393l-0.032-0.039c-0.69 1.154-1.099 2.546-1.099 4.033 0 0.005 0 0.010 0 0.015v-0.001c0 2.804 1.42 5.288 3.616 6.7-1.344 0-2.594-0.376-3.692-0.94v0.056c0 3.916 2.804 7.191 6.514 7.924-0.633 0.179-1.36 0.282-2.111 0.282-0.546 0-1.079-0.054-1.595-0.158l0.051 0.009c0.539 1.648 1.544 3.020 2.859 4l0.021 0.015c1.297 0.968 2.924 1.562 4.687 1.594l0.008 0c-2.727 2.159-6.217 3.464-10.011 3.464-0.029 0-0.058-0-0.087-0l0.004 0c-0.645 0-1.288-0.038-1.932-0.113 3.518 2.278 7.819 3.633 12.436 3.633 0.009 0 0.018 0 0.028-0h-0.001c14.923 0 23.124-12.311 23.124-22.984 0-0.358 0-0.696-0.020-1.054 1.6-1.155 2.946-2.546 4.017-4.139l0.037-0.058z"></path>
</symbol>
<symbol id="icon-facebook_svg" viewBox="0 0 32 32">
<path d="M32 16.040c0-8.854-7.168-16.040-16-16.040s-16 7.186-16 16.040c0 7.763 5.504 14.228 12.8 15.72v-10.907h-3.2v-4.813h3.2v-4.010c0 0 0 0 0 0 0-3.095 2.506-5.606 5.599-5.613h4.001v4.812h-3.2c-0.881 0-1.6 0.722-1.6 1.604v3.208h4.8v4.813h-4.8v11.148c8.081-0.803 14.4-7.635 14.4-15.96z"></path>
</symbol>
<symbol id="icon-wk_svg" viewBox="0 0 50 32">
<path d="M48.644 2.169c0.341-1.25 0-2.169-1.644-2.169h-5.444c-1.387 0-2.023 0.789-2.364 1.671 0 0-2.773 7.308-6.692 12.048-1.266 1.371-1.849 1.812-2.542 1.812-0.341 0-0.868-0.441-0.868-1.691v-11.669c0-1.5-0.388-2.171-1.534-2.171h-8.556c-0.007-0-0.016-0-0.025-0-0.748 0-1.356 0.604-1.362 1.351v0.001c0 1.419 1.959 1.749 2.164 5.749v8.679c0 1.9-0.315 2.251-1.008 2.251-1.849 0-6.34-7.34-9.001-15.74-0.535-1.63-1.063-2.29-2.457-2.29h-5.444c-1.552 0-1.867 0.789-1.867 1.671 0 1.559 1.849 9.308 8.604 19.548 4.498 6.99 10.836 10.78 16.604 10.78 3.467 0 3.89-0.841 3.89-2.29 0-6.681-0.313-7.31 1.422-7.31 0.805 0 2.192 0.441 5.426 3.81 3.698 4 4.306 5.79 6.377 5.79h5.442c1.552 0 2.338-0.841 1.884-2.5-1.035-3.49-8.030-10.67-8.343-11.15-0.805-1.12-0.574-1.62 0-2.62 0.009-0.011 6.652-10.13 7.337-13.559z"></path>
</symbol>
</defs>
</svg>
